<svg width="172" height="61" viewBox="0 0 172 61" fill="none" xmlns="http://www.w3.org/2000/svg">
<g clip-path="url(#clip0_90_2)">
<path d="M47.0769 5.10347C42.572 2.09384 37.729 0.451868 32.2211 0.0666405C27.9017 -0.235447 23.3095 0.495178 19.1713 2.14302C11.3932 5.24029 5.19013 11.4808 2.12776 19.2897C0.859089 22.5247 0.25058 25.3584 0.045431 28.9868C-0.298983 35.0779 1.32446 41.3858 4.58884 46.6401C9.35659 54.3141 17.2406 59.472 26.0913 60.7074C34.3044 61.8538 42.6133 59.6011 49.0581 54.4806L49.8276 53.8692L46.5118 50.5337L45.7307 51.1179C42.0376 53.8798 38.0412 55.4927 33.3389 56.119C32.1519 56.2772 28.7542 56.2997 27.5697 56.1573C23.298 55.6438 19.4603 54.2346 15.9974 51.9078C10.2413 48.0402 6.25563 41.9375 4.99991 35.0688C4.68575 33.3508 4.58071 31.9253 4.62007 29.9179C4.65842 27.964 4.76357 26.9599 5.11133 25.2269C5.91072 21.2433 7.68128 17.4515 10.272 14.1751C11.0818 13.1509 13.1353 11.0849 14.1562 10.2671C17.4838 7.60164 21.3762 5.78759 25.4423 5.00705C27.2724 4.65578 27.9018 4.60354 30.3101 4.60282C32.8284 4.60217 33.4581 4.65955 35.478 5.0738C39.2708 5.85172 43.1148 7.63276 46.1593 10.0227L46.3596 10.1799L47.9442 8.58705C48.8158 7.7109 49.5288 6.97041 49.5288 6.94139C49.5288 6.8478 48.2254 5.87073 47.0769 5.10347Z" fill="url(#paint0_linear_90_2)"/>
<path d="M29.3371 11.8032V6.59399L28.8143 6.60183C28.5267 6.60618 27.9491 6.65145 27.5307 6.70252C23.7916 7.15849 20.1012 8.54603 17.0081 10.6587C11.0943 14.6983 7.31218 21.1657 6.68304 28.3146C6.63532 28.8571 6.61103 29.3157 6.62895 29.3338C6.64698 29.352 7.80083 29.3893 9.19303 29.4169L11.7243 29.467L11.7735 28.9308C11.8006 28.6358 11.8841 28.0017 11.9593 27.5218C12.659 23.0515 15.0708 18.8643 18.6204 15.9571C20.0323 14.8008 22.1592 13.5826 23.8924 12.9377C25.2451 12.4343 27.0568 12.0398 28.8864 11.8499L29.3371 11.8032Z" fill="url(#paint1_linear_90_2)"/>
<path d="M42.7135 10.0661C39.7913 8.25598 36.4967 7.10981 33.0496 6.70412C32.5347 6.64354 31.9267 6.59399 31.6983 6.59399H31.2832V11.8059L31.77 11.8511C33.4042 12.0028 35.3501 12.4322 36.7414 12.9483C37.8085 13.344 39.514 14.207 40.4193 14.8093L41.2262 15.346L44.9182 11.6299L44.7533 11.4808C44.4998 11.2515 43.4353 10.5132 42.7135 10.0661Z" fill="url(#paint2_linear_90_2)"/>
<path d="M53.3062 24.513C52.6318 21.8524 51.5248 19.3688 49.9916 17.0769C49.6979 16.638 49.3844 16.1882 49.2948 16.0773L49.1318 15.8757L45.4355 19.6161L45.9179 20.3533C47.1281 22.2025 48.0715 24.5055 48.5133 26.6894C48.6434 27.332 48.8794 29.0509 48.8794 29.3551C48.8794 29.4265 49.4328 29.4462 51.4395 29.4462H53.9996L53.999 29.0291C53.9977 28.0556 53.6811 25.992 53.3062 24.513Z" fill="url(#paint3_linear_90_2)"/>
<path d="M42.1983 27.4512C41.0228 22.7172 37.0138 19.0477 32.2212 18.3188C28.6858 17.781 25.2931 18.7199 22.4857 21.0127C20.4077 22.7096 18.9194 25.2017 18.2857 28.0451C18.1462 28.6707 18.127 28.9682 18.127 30.4982C18.127 32.0342 18.1459 32.3248 18.2878 32.9648C18.6604 34.6451 19.3985 36.3573 20.3052 37.6441C20.9291 38.5296 22.3302 39.9384 23.2068 40.5618C27.2015 43.4021 32.4677 43.6056 36.6398 41.0808C38.5257 39.9397 40.1943 38.1473 41.1989 36.1839C42.1353 34.3538 42.5479 32.6486 42.5577 30.5707C42.5638 29.2632 42.4906 28.6284 42.1983 27.4512Z" fill="url(#paint4_linear_90_2)"/>
<path d="M13.6498 38.7686C12.5763 36.5843 11.9638 34.3806 11.7698 32.0035L11.721 31.405H6.59961L6.64894 32.1124C6.84948 34.9902 7.63152 37.9929 8.86029 40.6032C12.5344 48.4079 20.1078 53.6265 28.6326 54.2277L29.3357 54.2774V49.2112L28.236 49.086C26.1397 48.8476 24.1183 48.2596 22.2339 47.3399C20.3129 46.4025 18.9275 45.4302 17.4118 43.9557C15.7702 42.3588 14.6662 40.8366 13.6498 38.7686Z" fill="url(#paint5_linear_90_2)"/>
<path d="M53.5339 35.3555C53.7456 34.3703 54.0004 32.4491 54.0004 31.8376V31.405H48.8988L48.85 32.0035C48.6111 34.9295 47.5788 38.0438 46.032 40.5041L45.625 41.1516L47.4144 42.9528C48.3987 43.9435 49.2365 44.744 49.2764 44.7318C49.4402 44.6817 50.7908 42.5319 51.3592 41.4166C52.4406 39.2949 53.0558 37.5803 53.5339 35.3555Z" fill="url(#paint6_linear_90_2)"/>
<path d="M44.947 49.2158C45.0831 49.1082 45.013 49.0269 43.2889 47.2913C42.2987 46.2947 41.466 45.4792 41.4383 45.4792C41.4106 45.4792 41.37 45.5083 41.3482 45.544C41.2809 45.6535 39.937 46.5293 39.252 46.9099C37.2031 48.0487 34.7943 48.8118 32.383 49.086L31.2832 49.2112V54.2782L32.0224 54.2279C36.5901 53.9166 41.3226 52.0814 44.947 49.2158Z" fill="url(#paint7_linear_90_2)"/>
<path d="M74.9995 21.5443H89.9553V12.2H80.9561L74.9995 18.4443V21.5443ZM74.9995 37H69V15.3443L77.9563 6H95.9119V37H89.9553V27.7443H74.9995V37Z" fill="black"/>
<path d="M113.258 21.5443H128.214V12.2H113.258V21.5443ZM113.258 37H107.258V6H131.213L134.17 9.14429V24.6443L131.213 27.7443H113.258V37Z" fill="black"/>
<path d="M151.088 21.5443H166.043V12.2H151.088V21.5443ZM151.088 37H145.088V6H169.043L172 9.14429V24.6443L169.043 27.7443H151.088V37Z" fill="black"/>
<path d="M137.1 48.859H138.205C138.559 48.859 138.851 48.7992 139.08 48.6796C139.31 48.5552 139.48 48.383 139.59 48.163C139.705 47.9381 139.762 47.6774 139.762 47.3808C139.762 47.1129 139.709 46.8761 139.604 46.6704C139.504 46.4599 139.348 46.2972 139.138 46.1824C138.927 46.0628 138.662 46.003 138.341 46.003C138.088 46.003 137.853 46.0533 137.638 46.1537C137.423 46.2542 137.251 46.3953 137.121 46.5771C136.992 46.7589 136.928 46.9789 136.928 47.2373H134.854C134.854 46.6632 135.007 46.1633 135.313 45.7375C135.624 45.3117 136.04 44.9793 136.562 44.7401C137.083 44.5009 137.657 44.3813 138.284 44.3813C138.992 44.3813 139.611 44.4961 140.142 44.7257C140.673 44.9506 141.087 45.283 141.384 45.7232C141.68 46.1633 141.829 46.7086 141.829 47.3593C141.829 47.6893 141.752 48.0099 141.599 48.3208C141.446 48.627 141.226 48.9045 140.939 49.1532C140.657 49.3972 140.312 49.5933 139.906 49.7416C139.499 49.8852 139.042 49.9569 138.535 49.9569H137.1V48.859ZM137.1 50.4305V49.3613H138.535C139.104 49.3613 139.604 49.4259 140.035 49.5551C140.465 49.6842 140.827 49.8708 141.118 50.1148C141.41 50.354 141.63 50.6386 141.779 50.9687C141.927 51.294 142.001 51.6552 142.001 52.0523C142.001 52.5402 141.908 52.9756 141.721 53.3583C141.535 53.7362 141.271 54.0567 140.932 54.3198C140.597 54.583 140.205 54.7839 139.755 54.9226C139.305 55.0566 138.815 55.1235 138.284 55.1235C137.844 55.1235 137.411 55.0637 136.985 54.9441C136.564 54.8198 136.181 54.6356 135.837 54.3916C135.497 54.1428 135.225 53.8319 135.019 53.4587C134.818 53.0808 134.717 52.6335 134.717 52.1169H136.791C136.791 52.3848 136.858 52.6239 136.992 52.8344C137.126 53.0449 137.31 53.21 137.545 53.3296C137.784 53.4492 138.049 53.509 138.341 53.509C138.671 53.509 138.954 53.4492 139.188 53.3296C139.427 53.2052 139.609 53.033 139.733 52.8129C139.863 52.5881 139.927 52.3273 139.927 52.0307C139.927 51.648 139.858 51.3419 139.719 51.1122C139.58 50.8778 139.382 50.7056 139.123 50.5956C138.865 50.4855 138.559 50.4305 138.205 50.4305H137.1Z" fill="black"/>
<path d="M131.581 44.5105V54.9801H129.514V46.8929L127.031 47.6823V46.0534L131.358 44.5105H131.581Z" fill="black"/>
<path d="M125.136 48.8375V50.6458C125.136 51.4304 125.052 52.1073 124.885 52.6766C124.717 53.2411 124.476 53.7051 124.16 54.0687C123.849 54.4275 123.478 54.693 123.048 54.8652C122.617 55.0374 122.139 55.1235 121.612 55.1235C121.191 55.1235 120.799 55.0709 120.436 54.9657C120.072 54.8556 119.744 54.6858 119.452 54.4562C119.165 54.2266 118.917 53.9371 118.706 53.5879C118.5 53.2339 118.343 52.8129 118.233 52.3249C118.123 51.837 118.068 51.2773 118.068 50.6458V48.8375C118.068 48.0529 118.151 47.3808 118.319 46.8211C118.491 46.2566 118.732 45.7949 119.043 45.4361C119.359 45.0773 119.732 44.8142 120.163 44.6468C120.593 44.4746 121.072 44.3884 121.598 44.3884C122.019 44.3884 122.409 44.4435 122.768 44.5535C123.131 44.6587 123.459 44.8238 123.751 45.0486C124.043 45.2735 124.291 45.5629 124.497 45.9169C124.703 46.2661 124.861 46.6847 124.971 47.1727C125.081 47.6559 125.136 48.2108 125.136 48.8375ZM123.062 50.9185V48.5576C123.062 48.1797 123.04 47.8496 122.997 47.5674C122.959 47.2851 122.899 47.0459 122.818 46.8498C122.737 46.6488 122.636 46.4862 122.517 46.3618C122.397 46.2374 122.261 46.1465 122.108 46.0891C121.954 46.0317 121.785 46.003 121.598 46.003C121.364 46.003 121.156 46.0485 120.974 46.1394C120.797 46.2303 120.646 46.3762 120.522 46.5771C120.397 46.7732 120.302 47.0363 120.235 47.3664C120.172 47.6917 120.141 48.0888 120.141 48.5576V50.9185C120.141 51.2964 120.16 51.6289 120.199 51.9159C120.242 52.203 120.304 52.4493 120.385 52.655C120.471 52.856 120.572 53.021 120.687 53.1502C120.806 53.2746 120.943 53.3654 121.096 53.4229C121.254 53.4803 121.426 53.509 121.612 53.509C121.842 53.509 122.045 53.4635 122.222 53.3726C122.404 53.2769 122.557 53.1286 122.682 52.9277C122.811 52.722 122.906 52.4541 122.969 52.124C123.031 51.7939 123.062 51.3921 123.062 50.9185Z" fill="black"/>
<path d="M116.813 53.3655V54.98H109.666V53.6023L113.045 49.9784C113.385 49.6005 113.653 49.268 113.849 48.981C114.045 48.6892 114.186 48.4285 114.272 48.1988C114.363 47.9644 114.409 47.742 114.409 47.5315C114.409 47.2157 114.356 46.9455 114.251 46.7206C114.146 46.491 113.99 46.314 113.785 46.1896C113.584 46.0652 113.335 46.003 113.038 46.003C112.723 46.003 112.45 46.0796 112.22 46.2326C111.995 46.3857 111.823 46.5986 111.704 46.8713C111.589 47.144 111.531 47.4525 111.531 47.797H109.457C109.457 47.1751 109.606 46.6058 109.902 46.0891C110.199 45.5677 110.618 45.1539 111.158 44.8477C111.699 44.5368 112.34 44.3813 113.081 44.3813C113.813 44.3813 114.43 44.5009 114.933 44.7401C115.44 44.9745 115.822 45.3141 116.081 45.759C116.344 46.1992 116.475 46.7254 116.475 47.3377C116.475 47.6822 116.42 48.0194 116.31 48.3495C116.2 48.6748 116.043 49.0001 115.837 49.3254C115.636 49.646 115.392 49.9713 115.105 50.3014C114.818 50.6315 114.5 50.9735 114.15 51.3275L112.335 53.3655H116.813Z" fill="black"/>
<path d="M101.729 55.1236C101.126 55.1236 100.586 55.028 100.107 54.8366C99.629 54.6405 99.2223 54.3702 98.8874 54.0257C98.5574 53.6813 98.3038 53.2818 98.1268 52.8274C97.9498 52.3681 97.8613 51.8802 97.8613 51.3635V51.0765C97.8613 50.488 97.945 49.9498 98.1125 49.4619C98.2799 48.9739 98.5191 48.5506 98.83 48.1918C99.1458 47.833 99.5285 47.5579 99.9782 47.3665C100.428 47.1704 100.935 47.0723 101.499 47.0723C102.05 47.0723 102.538 47.1632 102.963 47.345C103.389 47.5268 103.746 47.7851 104.033 48.12C104.324 48.4549 104.544 48.8567 104.693 49.3255C104.841 49.7896 104.915 50.3062 104.915 50.8755V51.7366H98.7439V50.3589H102.884V50.201C102.884 49.914 102.832 49.658 102.727 49.4332C102.626 49.2036 102.473 49.0218 102.267 48.8878C102.062 48.7539 101.798 48.6869 101.478 48.6869C101.205 48.6869 100.971 48.7467 100.775 48.8663C100.579 48.9859 100.418 49.1533 100.294 49.3686C100.174 49.5839 100.083 49.8374 100.021 50.1292C99.9638 50.4163 99.9351 50.732 99.9351 51.0765V51.3635C99.9351 51.6744 99.9782 51.9615 100.064 52.2246C100.155 52.4877 100.282 52.7149 100.445 52.9063C100.612 53.0977 100.813 53.246 101.047 53.3512C101.287 53.4564 101.557 53.5091 101.858 53.5091C102.231 53.5091 102.578 53.4373 102.899 53.2938C103.224 53.1455 103.504 52.923 103.738 52.6264L104.743 53.7172C104.58 53.9516 104.358 54.1764 104.076 54.3917C103.798 54.607 103.463 54.784 103.071 54.9227C102.679 55.0567 102.231 55.1236 101.729 55.1236Z" fill="black"/>
<path d="M93.6998 53.5091C93.9533 53.5091 94.1782 53.4612 94.3743 53.3656C94.5705 53.2651 94.7235 53.1264 94.8336 52.9494C94.9484 52.7676 95.0082 52.5547 95.013 52.3107H96.9576C96.9528 52.8561 96.8069 53.3416 96.5199 53.7674C96.2329 54.1884 95.8478 54.5209 95.3646 54.7648C94.8814 55.004 94.3408 55.1236 93.7428 55.1236C93.1401 55.1236 92.6138 55.0232 92.1642 54.8223C91.7193 54.6213 91.3485 54.3439 91.0519 53.9899C90.7553 53.6311 90.5328 53.2149 90.3845 52.7413C90.2362 52.2629 90.1621 51.751 90.1621 51.2056V50.9975C90.1621 50.4474 90.2362 49.9355 90.3845 49.4619C90.5328 48.9835 90.7553 48.5673 91.0519 48.2133C91.3485 47.8545 91.7193 47.5746 92.1642 47.3737C92.6091 47.1728 93.1305 47.0723 93.7285 47.0723C94.3648 47.0723 94.9221 47.1943 95.4005 47.4383C95.8836 47.6823 96.2616 48.0315 96.5343 48.486C96.8117 48.9357 96.9528 49.4691 96.9576 50.0862H95.013C95.0082 49.8279 94.9532 49.5934 94.8479 49.383C94.7475 49.1725 94.5992 49.005 94.403 48.8806C94.2117 48.7515 93.9749 48.6869 93.6926 48.6869C93.3912 48.6869 93.1449 48.7515 92.9535 48.8806C92.7621 49.005 92.6138 49.1772 92.5086 49.3973C92.4034 49.6126 92.3292 49.859 92.2861 50.1364C92.2479 50.4091 92.2287 50.6961 92.2287 50.9975V51.2056C92.2287 51.507 92.2479 51.7964 92.2861 52.0739C92.3244 52.3514 92.3962 52.5977 92.5014 52.813C92.6114 53.0283 92.7621 53.1981 92.9535 53.3225C93.1449 53.4469 93.3936 53.5091 93.6998 53.5091Z" fill="black"/>
<path d="M84.2775 48.8735V54.9801H82.2109V47.2158H84.1483L84.2775 48.8735ZM83.9761 50.8253H83.4164C83.4164 50.2512 83.4905 49.7346 83.6389 49.2753C83.7872 48.8113 83.9953 48.4166 84.2631 48.0913C84.531 47.7612 84.8492 47.5101 85.2175 47.3378C85.5907 47.1608 86.0069 47.0723 86.4661 47.0723C86.8297 47.0723 87.1622 47.1249 87.4636 47.2302C87.765 47.3354 88.0233 47.5029 88.2386 47.7325C88.4586 47.9621 88.6261 48.2659 88.7409 48.6438C88.8605 49.0218 88.9203 49.4834 88.9203 50.0288V54.9801H86.8393V50.0216C86.8393 49.6772 86.7914 49.4093 86.6958 49.2179C86.6001 49.0266 86.459 48.8926 86.2724 48.8161C86.0906 48.7347 85.8658 48.6941 85.5979 48.6941C85.3204 48.6941 85.0788 48.7491 84.8731 48.8591C84.6722 48.9691 84.5047 49.1222 84.3708 49.3184C84.2416 49.5097 84.1436 49.7346 84.0766 49.9929C84.0096 50.2512 83.9761 50.5287 83.9761 50.8253Z" fill="black"/>
<path d="M80.5466 47.2157V54.98H78.4728V47.2157H80.5466ZM78.3438 45.1921C78.3438 44.8908 78.4489 44.642 78.6594 44.4459C78.8699 44.2497 79.1521 44.1516 79.5061 44.1516C79.8554 44.1516 80.1352 44.2497 80.3457 44.4459C80.561 44.642 80.6686 44.8908 80.6686 45.1921C80.6686 45.4935 80.561 45.7423 80.3457 45.9384C80.1352 46.1346 79.8554 46.2326 79.5061 46.2326C79.1521 46.2326 78.8699 46.1346 78.6594 45.9384C78.4489 45.7423 78.3438 45.4935 78.3438 45.1921Z" fill="black"/>
<path d="M74.877 52.246C74.877 52.0594 74.8483 51.892 74.7909 51.7437C74.7383 51.5906 74.6378 51.4519 74.4895 51.3275C74.3412 51.1983 74.1331 51.0716 73.8652 50.9472C73.5973 50.8228 73.2505 50.6936 72.8247 50.5597C72.3511 50.4066 71.9014 50.2344 71.4757 50.043C71.0547 49.8517 70.6815 49.6292 70.3562 49.3757C70.0357 49.1173 69.7822 48.8183 69.5956 48.4787C69.4138 48.139 69.3229 47.7444 69.3229 47.2947C69.3229 46.8593 69.4186 46.4647 69.6099 46.1107C69.8013 45.7519 70.0692 45.4457 70.4136 45.1921C70.7581 44.9338 71.1647 44.7353 71.6335 44.5965C72.1071 44.4578 72.6262 44.3884 73.1907 44.3884C73.9609 44.3884 74.633 44.5272 75.2071 44.8046C75.7812 45.0821 76.2261 45.4624 76.5418 45.9456C76.8623 46.4288 77.0226 46.9813 77.0226 47.6032H74.8842C74.8842 47.2971 74.8196 47.0292 74.6905 46.7995C74.5661 46.5651 74.3747 46.3809 74.1164 46.247C73.8628 46.113 73.5423 46.0461 73.1548 46.0461C72.7817 46.0461 72.4707 46.1035 72.222 46.2183C71.9732 46.3283 71.7866 46.479 71.6622 46.6704C71.5379 46.8569 71.4757 47.0674 71.4757 47.3018C71.4757 47.4789 71.5187 47.6391 71.6048 47.7826C71.6957 47.9261 71.8297 48.0601 72.0067 48.1845C72.1837 48.3089 72.4014 48.4261 72.6597 48.5361C72.918 48.6461 73.217 48.7538 73.5567 48.859C74.126 49.0312 74.6259 49.225 75.0564 49.4403C75.4918 49.6555 75.8553 49.8971 76.1472 50.165C76.439 50.4329 76.659 50.7367 76.8073 51.0763C76.9556 51.416 77.0298 51.8011 77.0298 52.2317C77.0298 52.6861 76.9413 53.0928 76.7643 53.4516C76.5873 53.8104 76.3313 54.1141 75.9965 54.3629C75.6616 54.6117 75.2621 54.8006 74.7981 54.9298C74.3341 55.059 73.815 55.1235 73.2409 55.1235C72.7243 55.1235 72.2148 55.0566 71.7125 54.9226C71.2102 54.7839 70.7533 54.5758 70.3419 54.2983C69.9353 54.0208 69.6099 53.6668 69.366 53.2363C69.122 52.8057 69 52.2962 69 51.7078H71.1599C71.1599 52.0331 71.2102 52.3082 71.3106 52.533C71.4111 52.7579 71.5522 52.9397 71.734 53.0784C71.9206 53.2171 72.1406 53.3176 72.3942 53.3798C72.6525 53.442 72.9348 53.4731 73.2409 53.4731C73.6141 53.4731 73.9202 53.4205 74.1594 53.3152C74.4034 53.21 74.5828 53.0641 74.6976 52.8775C74.8172 52.6909 74.877 52.4804 74.877 52.246Z" fill="black"/>
</g>
<defs>
<linearGradient id="paint0_linear_90_2" x1="51.9107" y1="37.1265" x2="2.34329" y2="40.6169" gradientUnits="userSpaceOnUse">
<stop stop-color="#EBBB95"/>
<stop offset="1" stop-color="#D09376"/>
</linearGradient>
<linearGradient id="paint1_linear_90_2" x1="51.9113" y1="37.1266" x2="2.34385" y2="40.617" gradientUnits="userSpaceOnUse">
<stop stop-color="#EBBB95"/>
<stop offset="1" stop-color="#D09376"/>
</linearGradient>
<linearGradient id="paint2_linear_90_2" x1="51.9103" y1="37.1266" x2="2.3429" y2="40.617" gradientUnits="userSpaceOnUse">
<stop stop-color="#EBBB95"/>
<stop offset="1" stop-color="#D09376"/>
</linearGradient>
<linearGradient id="paint3_linear_90_2" x1="51.9103" y1="37.1264" x2="2.34294" y2="40.6168" gradientUnits="userSpaceOnUse">
<stop stop-color="#EBBB95"/>
<stop offset="1" stop-color="#D09376"/>
</linearGradient>
<linearGradient id="paint4_linear_90_2" x1="51.9108" y1="37.1264" x2="2.34334" y2="40.6168" gradientUnits="userSpaceOnUse">
<stop stop-color="#EBBB95"/>
<stop offset="1" stop-color="#D09376"/>
</linearGradient>
<linearGradient id="paint5_linear_90_2" x1="51.9099" y1="37.1264" x2="2.34247" y2="40.6168" gradientUnits="userSpaceOnUse">
<stop stop-color="#EBBB95"/>
<stop offset="1" stop-color="#D09376"/>
</linearGradient>
<linearGradient id="paint6_linear_90_2" x1="51.9111" y1="37.1264" x2="2.34369" y2="40.6168" gradientUnits="userSpaceOnUse">
<stop stop-color="#EBBB95"/>
<stop offset="1" stop-color="#D09376"/>
</linearGradient>
<linearGradient id="paint7_linear_90_2" x1="51.9103" y1="37.1264" x2="2.34289" y2="40.6168" gradientUnits="userSpaceOnUse">
<stop stop-color="#EBBB95"/>
<stop offset="1" stop-color="#D09376"/>
</linearGradient>
<clipPath id="clip0_90_2">
<rect width="172" height="61" fill="white"/>
</clipPath>
</defs>
</svg>
