<svg width="174" height="48" viewBox="0 0 174 48" fill="none" xmlns="http://www.w3.org/2000/svg">
<g clip-path="url(#clip0_90_23)">
<mask id="mask0_90_23" style="mask-type:luminance" maskUnits="userSpaceOnUse" x="0" y="0" width="174" height="48">
<path d="M174 0H0V48H174V0Z" fill="white"/>
</mask>
<g mask="url(#mask0_90_23)">
<path d="M71.9143 13.8926C73.1984 14.461 73.8519 14.3303 73.8689 13.5117H74.4372L74.8633 19.0654L74.3519 19.1223C74.0921 17.8055 73.5321 16.5663 72.7155 15.5013C72.2727 14.9544 71.7035 14.5236 71.057 14.2463C70.4105 13.969 69.7062 13.8534 69.005 13.9096C68.0378 13.8862 67.0936 14.2064 66.34 14.8134C65.9121 15.1515 65.6149 15.6277 65.4991 16.1607C65.3319 16.7145 65.3124 17.3023 65.4423 17.866C65.5515 18.3704 65.8134 18.8289 66.1923 19.1791C66.6753 19.6737 67.8458 20.2535 69.6925 20.9243C70.9567 21.354 72.1874 21.8765 73.3746 22.4875C74.2606 22.9832 75.0177 23.6803 75.585 24.5226C76.1096 25.4722 76.3392 26.5568 76.2441 27.6377C76.2075 28.4792 76.0032 29.305 75.6431 30.0664C75.2831 30.8278 74.7745 31.5096 74.1474 32.0716C73.4229 32.7074 72.5752 33.187 71.6572 33.4804C70.7392 33.7738 69.7705 33.8748 68.8118 33.777C67.454 33.6974 66.135 33.2939 64.965 32.6003C64.5872 32.3713 64.1875 32.1809 63.7717 32.0318C63.6288 31.9832 63.4748 31.9772 63.3285 32.0145C63.1822 32.0518 63.0499 32.1309 62.9478 32.2421C62.6555 32.5917 62.5036 33.0374 62.5216 33.4927H62.0273V27.3592H62.5216C62.8171 28.819 63.5137 30.1674 64.5331 31.253C65.6691 32.343 67.1809 32.9537 68.755 32.9584C69.9256 33.0642 71.0975 32.7696 72.0791 32.1228C72.605 31.7607 73.0028 31.2413 73.2155 30.6391C73.4293 30.0562 73.5051 29.4316 73.4371 28.8144C73.3799 28.2513 73.1697 27.7145 72.8291 27.2625C72.3997 26.7761 71.8857 26.3716 71.312 26.0688C70.5081 25.6319 69.6745 25.252 68.8175 24.9319C67.8401 24.5567 67.1128 24.244 66.6355 23.9996C63.8399 22.5898 62.4326 20.8049 62.4136 18.6448C62.396 17.9275 62.5325 17.2148 62.8138 16.5548C63.0951 15.8948 63.5148 15.3029 64.0444 14.8191C65.3981 13.703 67.116 13.1261 68.8686 13.199C69.9206 13.2188 70.9573 13.4549 71.9143 13.8926Z" fill="black"/>
<path d="M89.0296 21.2657C90.2991 22.681 90.9836 24.526 90.9445 26.4272C90.965 27.3937 90.7914 28.3546 90.4342 29.2528C90.077 30.1511 89.5434 30.9686 88.8649 31.657C88.2366 32.3383 87.4726 32.8805 86.6222 33.2486C85.7717 33.6168 84.8536 33.8027 83.927 33.7943C83.0211 33.8088 82.1223 33.6331 81.2884 33.2787C80.4546 32.9242 79.7042 32.3989 79.0858 31.7365C78.4405 31.0662 77.9349 30.2743 77.5984 29.4067C77.2619 28.5391 77.1011 27.6133 77.1255 26.683C77.0787 24.7514 77.7859 22.8776 79.0972 21.4589C79.7398 20.7466 80.5308 20.184 81.4144 19.8108C82.298 19.4376 83.2527 19.2628 84.2111 19.2988C85.1078 19.2663 86.001 19.4249 86.8318 19.764C87.6625 20.1031 88.4117 20.6149 89.0296 21.2657ZM81.7167 21.9365C81.0505 23.4197 80.7299 25.035 80.7791 26.6603C80.7338 28.2443 81.0587 29.8171 81.728 31.2533C82.3644 32.4926 83.1372 33.1065 84.0464 33.1065C84.9555 33.1065 85.7908 32.4642 86.4329 31.1738C87.138 29.6976 87.479 28.0738 87.4273 26.4386C87.4926 24.8363 87.2055 23.2393 86.5863 21.7602C86.0181 20.5665 85.2282 19.9753 84.1998 19.9753C83.1713 19.9753 82.3701 20.629 81.7167 21.9365Z" fill="black"/>
<path d="M97.0978 14.5808V19.6457H99.9389V20.3051H97.0978V29.8835C97.0277 30.6551 97.2287 31.427 97.6661 32.0664C97.8835 32.2726 98.1568 32.4102 98.4519 32.4617C98.7471 32.5133 99.0509 32.4766 99.3253 32.3563C99.5639 32.2824 99.9958 32.1062 100.62 31.8333L100.842 32.5894C100.352 32.8388 99.8454 33.0534 99.3253 33.2317C95.5978 34.5164 93.7359 33.5008 93.7397 30.1848V20.3051H91.7793V19.8788C92.9202 19.5519 93.9348 18.8858 94.6886 17.9688C95.5841 16.9875 96.2567 15.824 96.6603 14.5581L97.0978 14.5808Z" fill="black"/>
<path d="M113.263 21.0835C114.466 22.4235 115.134 24.1598 115.138 25.9608H105.166C104.999 27.5697 105.419 29.1847 106.348 30.5084C106.711 31.0803 107.216 31.5486 107.813 31.8683C108.41 32.1879 109.08 32.348 109.757 32.3332C110.309 32.3331 110.856 32.2229 111.365 32.0092C111.875 31.7954 112.336 31.4824 112.723 31.0883C113.575 30.1923 114.19 29.0983 114.513 27.905H114.956C114.675 29.5747 113.833 31.0987 112.57 32.2252C111.377 33.2558 109.844 33.8085 108.268 33.777C107.383 33.7869 106.506 33.6085 105.695 33.2538C104.884 32.899 104.157 32.376 103.564 31.7192C102.29 30.3503 101.606 28.535 101.66 26.6657C101.601 24.7429 102.283 22.871 103.564 21.436C104.183 20.735 104.949 20.1787 105.807 19.8064C106.665 19.4341 107.595 19.2549 108.53 19.2815C109.401 19.2306 110.273 19.3648 111.089 19.6754C111.905 19.986 112.646 20.4659 113.263 21.0835ZM106.973 20.481C106.533 20.8779 106.193 21.3724 105.978 21.9248C105.734 22.4733 105.543 23.0445 105.41 23.6302C105.306 24.1802 105.239 24.7367 105.211 25.2958H111.598C111.62 24.5516 111.541 23.8078 111.365 23.0845C111.195 22.2794 110.841 21.5246 110.331 20.8789C110.131 20.5683 109.854 20.3143 109.528 20.1411C109.202 19.9679 108.837 19.8814 108.467 19.8898C107.914 19.9013 107.384 20.1111 106.973 20.481Z" fill="black"/>
<path d="M121.123 21.3166C121.48 20.6994 121.998 20.1909 122.621 19.8455C123.245 19.5 123.95 19.3306 124.663 19.3554C125.545 19.3482 126.414 19.5695 127.185 19.9978C127.463 20.1186 127.702 20.3157 127.873 20.5661C128.043 20.8165 128.14 21.1102 128.151 21.4132C128.155 21.7163 128.05 22.0108 127.856 22.2432C127.752 22.3659 127.621 22.4628 127.473 22.5259C127.325 22.5891 127.164 22.6168 127.004 22.607C126.672 22.6191 126.345 22.519 126.077 22.3228C125.795 22.0855 125.575 21.7831 125.435 21.4416C125.278 21.0523 125.022 20.7112 124.691 20.4525C124.543 20.3315 124.37 20.2443 124.184 20.1972C123.999 20.1501 123.805 20.1441 123.617 20.1797C123.049 20.2422 122.481 20.7027 121.912 21.561C121.36 22.4547 121.078 23.4892 121.1 24.5397V30.0708C121.1 32.0149 121.725 32.9982 122.986 33.0267V33.4928H115.963V33.0267C117.209 32.9698 117.831 31.9845 117.827 30.0708V22.6809C117.827 21.1082 117.206 20.4165 115.963 20.606V20.1399L120.765 19.3725C121.015 19.651 121.123 20.3104 121.123 21.3166Z" fill="black"/>
<path d="M128.542 19.6455H135.48V20.1116C134.406 20.1116 134.259 21.0723 135.054 22.9937L137.634 29.2467L140.401 22.9084C141.202 21.0666 140.907 20.1457 139.52 20.1344V19.6682H144.265V20.1344C142.939 20.1685 141.873 21.1292 141.066 23.0164L134.969 37.1936C134.622 38.1263 134.059 38.9639 133.327 39.6379C132.765 40.1117 132.086 40.4241 131.361 40.5418C130.752 40.6633 130.121 40.6162 129.537 40.4053C129.312 40.3364 129.105 40.2178 128.932 40.0585C128.759 39.8991 128.624 39.703 128.537 39.4845C128.383 39.1071 128.373 38.6864 128.508 38.3021C128.562 38.1261 128.658 37.9663 128.789 37.8372C128.92 37.7082 129.082 37.6139 129.258 37.5631C129.52 37.4788 129.801 37.4784 130.063 37.562C130.325 37.6456 130.554 37.8089 130.719 38.0292C130.981 38.3829 131.321 38.6709 131.713 38.8705C131.895 38.9448 132.09 38.9792 132.286 38.9714C132.482 38.9635 132.674 38.9136 132.849 38.825C133.539 38.3891 134.06 37.7317 134.327 36.9605L135.827 33.5043L131.491 23.0221C130.696 21.1007 129.707 20.1401 128.542 20.1401V19.6455Z" fill="black"/>
<path d="M154.362 21.4588C154.787 22.3859 154.982 23.4018 154.931 24.4204V31.31C154.931 32.1627 155.163 32.6572 155.624 32.7937C156.303 32.8582 156.98 32.6542 157.51 32.2252L157.732 32.6516C156.85 33.2901 155.797 33.6485 154.709 33.6804C152.857 33.6804 151.868 32.9983 151.76 31.6397C151.329 32.2816 150.742 32.8038 150.055 33.1575C149.215 33.6029 148.272 33.8168 147.322 33.7771C146.233 33.7673 145.18 33.3796 144.345 32.68C143.955 32.326 143.648 31.8902 143.445 31.4038C143.243 30.9175 143.15 30.3924 143.174 29.8661C143.174 27.9713 144.24 26.6449 146.373 25.887C149.93 24.6402 151.695 23.2342 151.669 21.6691C151.669 20.4829 150.745 19.8898 148.896 19.8898C148.326 19.833 147.756 19.9934 147.299 20.3389C147.042 20.731 146.838 21.1553 146.691 21.6009C146.563 21.9414 146.37 22.254 146.123 22.5218C145.936 22.742 145.679 22.8923 145.396 22.9481C145.238 22.9826 145.075 22.9833 144.918 22.9499C144.76 22.9166 144.611 22.8501 144.481 22.7548C144.352 22.6554 144.245 22.5312 144.165 22.3897C144.085 22.2481 144.034 22.0921 144.015 21.9306C144.015 21.6314 144.091 21.3372 144.236 21.0756C144.382 20.8141 144.591 20.5938 144.845 20.4355C146.017 19.5786 147.446 19.1474 148.896 19.2134C151.805 19.2437 153.627 19.9922 154.362 21.4588ZM148.43 26.302C147.788 26.5836 147.258 27.0718 146.924 27.689C146.597 28.314 146.436 29.0131 146.458 29.7184C146.471 30.4253 146.682 31.1146 147.066 31.7079C147.252 31.9862 147.507 32.2112 147.806 32.3607C148.104 32.5102 148.437 32.5792 148.771 32.5606C149.217 32.5681 149.654 32.4443 150.03 32.2048C150.406 31.9653 150.703 31.6205 150.885 31.2134C151.424 30.1476 151.684 28.9623 151.641 27.7685V24.2157C150.693 25.0835 149.608 25.7884 148.43 26.302Z" fill="black"/>
<path d="M170.886 20.5208C171.311 20.9943 171.637 21.5481 171.845 22.1494C172.052 22.7507 172.138 23.3876 172.096 24.0225V30.0878C172.096 32.0092 172.731 32.985 174 33.0154V33.4815H166.926V33.0154C168.191 32.985 168.825 32.0092 168.829 30.0878V23.5904C168.855 22.8051 168.59 22.0379 168.085 21.436C167.846 21.1505 167.547 20.9209 167.21 20.7634C166.873 20.6058 166.505 20.5242 166.133 20.5242C165.761 20.5242 165.393 20.6058 165.056 20.7634C164.719 20.9209 164.42 21.1505 164.181 21.436C163.676 22.0323 163.406 22.792 163.42 23.5734V30.0935C163.42 32.0149 164.068 32.9926 165.352 33.021V33.4871H158.141V33.021C159.437 32.9907 160.084 32.0149 160.084 30.0935V22.607C160.084 21.0381 159.437 20.3616 158.141 20.589V20.1115L162.994 19.3441C163.232 19.5829 163.374 20.1968 163.42 21.1972C163.917 20.6003 164.543 20.1236 165.25 19.8027C165.958 19.4818 166.729 19.325 167.505 19.3441C168.119 19.2957 168.737 19.3753 169.319 19.5778C169.901 19.7803 170.435 20.1014 170.886 20.5208Z" fill="black"/>
<path fill-rule="evenodd" clip-rule="evenodd" d="M23.9902 0C19.2454 0 14.6071 1.40758 10.662 4.04473C6.7168 6.68188 3.64192 10.4302 1.82615 14.8156C0.0103936 19.201 -0.464691 24.0266 0.460976 28.6822C1.38664 33.3377 3.67149 37.6141 7.02658 40.9706C10.3817 44.327 14.6563 46.6128 19.31 47.5389C23.9636 48.4649 28.7872 47.9896 33.1709 46.1731C37.5545 44.3566 41.3013 41.2804 43.9373 37.3337C46.5734 33.3869 47.9804 28.7467 47.9804 24C47.9804 20.8483 47.3599 17.7274 46.1543 14.8156C44.9486 11.9038 43.1815 9.25805 40.9538 7.02945C38.7261 4.80084 36.0815 3.033 33.1709 1.82689C30.2602 0.620778 27.1406 0 23.9902 0ZM45.5484 24.8925L43.7358 24.8129C43.4631 24.8129 43.3153 24.6025 43.304 24.2899L43.2017 21.9024C43.197 21.8295 43.1855 21.7572 43.1676 21.6864L42.1448 21.8115C42.1789 22.5163 42.2357 23.2042 42.2414 23.8863C42.2471 24.5685 42.2016 25.2506 42.1732 25.9611C42.6505 26.018 43.1506 26.0805 43.6506 26.126C44.1506 26.1715 44.787 26.2226 45.3552 26.2738C45.7587 26.3079 45.9235 26.4784 45.861 26.8877C45.8144 27.4613 45.729 28.0311 45.6053 28.5931C45.3212 29.6902 44.9859 30.7703 44.6563 31.8503C44.5411 32.1919 44.4006 32.5244 44.2359 32.8451C44.0881 33.1578 43.8608 33.2714 43.554 33.118C43.0255 32.8451 42.4744 32.612 41.9346 32.3619C41.8754 32.3433 41.8212 32.3115 41.7762 32.2689C41.7311 32.2263 41.6963 32.174 41.6744 32.116C41.6525 32.0579 41.6441 31.9956 41.6498 31.9339C41.6555 31.8721 41.6751 31.8124 41.7073 31.7594C41.8721 31.3444 42.0596 30.9408 42.2073 30.5258C42.355 30.1109 42.4914 29.6049 42.6335 29.1217L41.5823 28.8148C41.2188 30.202 40.6844 31.5386 39.9913 32.7939C40.1958 32.8849 40.3947 32.9645 40.5595 33.0668C41.3323 33.4874 42.0937 33.9195 42.8608 34.3458C42.9341 34.3739 42.9999 34.4187 43.0529 34.4767C43.106 34.5346 43.1448 34.6042 43.1663 34.6797C43.1878 34.7553 43.1914 34.8348 43.1768 34.9121C43.1623 34.9893 43.1299 35.062 43.0824 35.1246C42.9176 35.4031 42.7414 35.693 42.5596 35.9375C42.0937 36.6025 41.6391 37.2847 41.1391 37.927C40.7697 38.4045 40.3435 38.8309 39.9344 39.2743C39.7185 39.5017 39.5026 39.7234 39.2696 39.9337C39.231 39.99 39.1792 40.036 39.1188 40.0678C39.0585 40.0996 38.9912 40.1162 38.923 40.1162C38.8548 40.1162 38.7875 40.0996 38.7272 40.0678C38.6668 40.036 38.615 39.99 38.5764 39.9337C38.1616 39.5017 37.7468 39.064 37.3377 38.6262C37.2906 38.5908 37.2524 38.5448 37.2261 38.492C37.1998 38.4392 37.1861 38.3811 37.1861 38.3221C37.1861 38.2631 37.1998 38.205 37.2261 38.1522C37.2524 38.0994 37.2906 38.0535 37.3377 38.018L38.7582 36.4889C38.923 36.3013 39.0707 36.0966 39.2412 35.8806L38.3775 35.2269C38.2127 35.4315 38.0764 35.6305 37.9116 35.7953C37.4229 36.3126 36.9286 36.8186 36.4285 37.3188C36.133 37.6087 35.8148 37.8872 35.5137 38.1487C35.4932 38.176 35.4794 38.2077 35.4734 38.2413C35.4675 38.2749 35.4696 38.3094 35.4796 38.342C35.5406 38.4467 35.611 38.5456 35.6898 38.6376L36.9286 40.1383C37.1331 40.3941 37.3377 40.6499 37.5365 40.9114C37.5715 40.9565 37.5971 41.008 37.612 41.0631C37.6269 41.1181 37.6308 41.1756 37.6234 41.2321C37.616 41.2887 37.5975 41.3432 37.5689 41.3925C37.5404 41.4419 37.5023 41.4851 37.457 41.5196C37.1161 41.7754 36.7808 42.0483 36.4228 42.2814C35.883 42.6281 35.3319 42.9465 34.7807 43.2762C34.6045 43.3785 34.4341 43.4979 34.2466 43.5888C33.5079 43.9356 32.7692 44.2823 32.0248 44.6177C31.9616 44.6543 31.8906 44.6754 31.8176 44.6795C31.7447 44.6835 31.6718 44.6703 31.6049 44.641C31.538 44.6117 31.4789 44.567 31.4324 44.5106C31.3859 44.4543 31.3533 44.3877 31.3373 44.3164L30.7747 42.6395C30.7498 42.5876 30.7358 42.5311 30.7338 42.4736C30.7319 42.416 30.7419 42.3587 30.7633 42.3052C30.7847 42.2518 30.8169 42.2033 30.858 42.163C30.8991 42.1227 30.9482 42.0914 31.002 42.0711C31.4339 41.8721 31.8771 41.7016 32.3033 41.5026C32.7294 41.3036 33.1385 41.0649 33.5704 40.8375L33.0022 39.8882C31.7734 40.5942 30.4722 41.1659 29.1212 41.5935C29.1212 41.6333 29.1212 41.6845 29.1553 41.7357C29.4432 42.7399 29.7349 43.7461 30.0304 44.7541C30.1213 45.0838 30.0304 45.3226 29.6781 45.3908C28.8883 45.5727 28.0928 45.7433 27.2972 45.8797C26.0957 46.0783 24.8782 46.1639 23.6606 46.1355C23.5531 46.1394 23.4457 46.126 23.3424 46.0957C23.2404 46.0725 23.1509 46.0115 23.0919 45.9251C23.0329 45.8386 23.0087 45.7331 23.0242 45.6296C23.0242 45.0611 23.0811 44.4528 23.1038 43.8617C23.1005 43.7961 23.111 43.7306 23.1348 43.6694C23.1585 43.6082 23.1949 43.5527 23.2416 43.5065C23.2882 43.4604 23.3441 43.4246 23.4056 43.4016C23.467 43.3785 23.5326 43.3687 23.5981 43.3728L26.0983 43.2648C26.1779 43.2648 26.2631 43.2648 26.371 43.2648C26.3256 42.9067 26.2801 42.5656 26.2347 42.2018C24.8183 42.378 23.3863 42.3894 21.9674 42.2359C21.9219 42.6566 21.8764 43.0601 21.8367 43.4694C21.7685 44.1857 21.7003 44.9019 21.6264 45.6182C21.6264 45.8683 21.3821 46.0047 21.0582 45.9649C20.6073 45.9343 20.1592 45.8717 19.7172 45.7774C18.4955 45.4477 17.2739 45.0952 16.0636 44.72C15.6691 44.5637 15.2888 44.3735 14.9271 44.1516C14.8878 44.1304 14.8532 44.1014 14.8257 44.0663C14.7981 44.0311 14.7781 43.9907 14.7669 43.9475C14.7557 43.9042 14.7535 43.8591 14.7605 43.815C14.7676 43.7709 14.7837 43.7287 14.8078 43.6911C15.0692 43.1227 15.3362 42.5542 15.6147 41.9858C15.6327 41.9304 15.6631 41.8798 15.7035 41.8377C15.7439 41.7957 15.7933 41.7633 15.8479 41.7431C15.9026 41.7229 15.9611 41.7153 16.0191 41.7209C16.0771 41.7265 16.1331 41.7451 16.1829 41.7755C16.6488 41.9574 17.0977 42.1734 17.5637 42.3439C18.0296 42.5144 18.3989 42.5884 18.8421 42.7191C18.9501 42.3553 19.041 42.0142 19.1433 41.6731C17.7559 41.3091 16.4197 40.7724 15.1658 40.0758C15.0067 40.3714 14.8419 40.6443 14.6885 40.9398C14.4555 41.3776 14.2282 41.8153 13.9896 42.253C13.8475 42.5088 13.6941 42.7532 13.552 43.0033C13.5248 43.0667 13.4837 43.1233 13.4319 43.1689C13.3801 43.2145 13.3189 43.248 13.2525 43.2671C13.1862 43.2861 13.1165 43.2902 13.0484 43.279C12.9803 43.2678 12.9155 43.2416 12.8588 43.2023C12.6486 43.0829 12.444 42.9408 12.2451 42.8043C11.711 42.4349 11.1769 42.071 10.6541 41.6674C10.1314 41.2638 9.75065 40.9853 9.3529 40.6442C8.95514 40.3032 8.43238 39.7518 7.99485 39.2913C7.75052 39.0355 7.77893 38.8423 8.04031 38.5978L9.30176 37.4098C9.34383 37.3575 9.39706 37.3154 9.45753 37.2865C9.518 37.2576 9.58418 37.2426 9.65121 37.2426C9.71824 37.2426 9.78442 37.2576 9.84489 37.2865C9.90537 37.3154 9.95859 37.3575 10.0007 37.4098L12.0406 39.3197L12.7281 38.4102C11.6099 37.5361 10.5973 36.5346 9.71087 35.4259L9.0631 35.9261C8.84149 36.1023 8.61421 36.2729 8.39828 36.4491C8.27328 36.5457 8.15963 36.6651 8.03462 36.7674L7.0857 37.5178C7.04001 37.5648 6.98383 37.6003 6.92176 37.6214C6.8597 37.6425 6.79352 37.6486 6.72865 37.6392C6.66378 37.6297 6.60206 37.6051 6.54856 37.5672C6.49507 37.5293 6.45131 37.4792 6.42088 37.4211C5.95494 36.7674 5.47765 36.1251 5.04012 35.4543C4.77077 35.0291 4.5297 34.5866 4.31848 34.1298C3.98323 33.442 3.6707 32.7485 3.36386 32.0493C3.32132 31.9836 3.29579 31.9084 3.28955 31.8303C3.28331 31.7523 3.29658 31.674 3.32814 31.6024C3.35971 31.5307 3.40859 31.4681 3.47037 31.4201C3.53216 31.3721 3.60491 31.3402 3.68207 31.3273L5.25603 30.7589C5.61401 30.6338 5.78448 30.7134 5.93789 31.0659C6.19359 31.6343 6.44361 32.2028 6.71067 32.7712C6.83568 33.027 6.99478 33.2714 7.13684 33.5215C7.45504 33.3339 7.76188 33.1577 8.06872 32.9531C7.37438 31.7173 6.81616 30.4098 6.40384 29.0535C6.07995 29.1502 5.74471 29.2582 5.40378 29.3548L3.23886 29.9574C2.90361 30.054 2.67064 29.9574 2.60813 29.6277C2.43388 29.035 2.30097 28.431 2.21038 27.82C2.06264 26.6831 1.97741 25.5462 1.88081 24.4093C1.86376 24.1348 1.86376 23.8595 1.88081 23.585C1.8735 23.514 1.88281 23.4423 1.90799 23.3755C1.93316 23.3087 1.97352 23.2486 2.02588 23.2001C2.07823 23.1516 2.14116 23.1159 2.20967 23.0959C2.27818 23.0759 2.3504 23.0721 2.42063 23.0848L4.12528 23.1587C4.49463 23.1587 4.63668 23.3349 4.64804 23.7271C4.68214 24.54 4.72191 25.3472 4.75601 26.1601C4.75601 26.1999 4.75601 26.234 4.75601 26.3079L5.81857 26.1828C5.65379 24.807 5.64236 23.4172 5.78448 22.0389C5.4265 21.9934 5.07989 21.9422 4.72759 21.9081C4.00596 21.8399 3.28431 21.7831 2.55699 21.7205C2.4785 21.728 2.39939 21.7158 2.32673 21.6852C2.25406 21.6546 2.19012 21.6065 2.14059 21.5451C2.09107 21.4837 2.05751 21.411 2.04291 21.3335C2.02832 21.256 2.03315 21.1761 2.05697 21.1009C2.17061 20.3449 2.26721 19.5831 2.45472 18.8271C2.73872 17.5797 3.14409 16.3631 3.66502 15.1947C3.84117 14.8252 4.01732 14.7456 4.38666 14.9105C4.92079 15.1492 5.44355 15.3937 5.972 15.6438C6.03382 15.6605 6.09085 15.6916 6.13848 15.7344C6.18612 15.7773 6.22304 15.8307 6.24626 15.8905C6.26947 15.9502 6.27835 16.0145 6.27216 16.0783C6.26598 16.1421 6.24491 16.2035 6.21065 16.2577C6.0345 16.6897 5.83562 17.1161 5.6822 17.5538C5.52878 17.9915 5.4265 18.4292 5.29013 18.8896L6.34133 19.1909C6.70102 17.8042 7.23164 16.4675 7.92098 15.2118L7.22775 14.8536L5.83562 14.109C5.51742 13.9327 5.19921 13.7508 4.88101 13.5405C4.70486 13.4382 4.67645 13.1142 4.82419 12.8527C4.97193 12.5912 5.07989 12.4377 5.22194 12.2331C5.59128 11.6987 5.96631 11.153 6.35838 10.6243C6.67658 10.1866 7.00615 9.7603 7.35276 9.34533C7.53459 9.12364 7.7562 8.92469 7.96076 8.72005C8.16532 8.51541 8.41534 8.24823 8.65399 8.03221C8.89264 7.8162 9.09151 7.8162 9.33016 8.03221C9.74307 8.46045 10.1522 8.89245 10.5575 9.32826C10.608 9.3646 10.6491 9.41243 10.6774 9.46778C10.7058 9.52312 10.7205 9.58441 10.7205 9.6466C10.7205 9.70879 10.7058 9.7701 10.6774 9.82545C10.6491 9.8808 10.608 9.92863 10.5575 9.96496C10.0802 10.4823 9.59155 10.9938 9.11992 11.5111C8.96082 11.6817 8.83014 11.8806 8.67103 12.0796L9.53472 12.7276C9.69382 12.523 9.83588 12.324 10.0007 12.1592C10.4893 11.6476 10.978 11.136 11.4837 10.6357C11.7735 10.3458 12.0974 10.0673 12.3986 9.80578C12.4171 9.77868 12.4298 9.74797 12.4357 9.71564C12.4415 9.68331 12.4405 9.65009 12.4326 9.61818C12.4098 9.55261 12.3707 9.49393 12.319 9.44765L10.8871 7.79347L10.3757 7.14543C10.3408 7.10036 10.3151 7.04882 10.3002 6.99378C10.2853 6.93874 10.2814 6.88129 10.2888 6.82474C10.2962 6.7682 10.3147 6.71366 10.3433 6.66431C10.3719 6.61496 10.4099 6.57176 10.4552 6.53719C10.8075 6.2757 11.1428 5.96874 11.5064 5.7641C12.0406 5.41735 12.5861 5.10467 13.1315 4.78066C13.3816 4.63286 13.6259 4.47372 13.8873 4.34866C14.5578 4.03033 15.2283 3.72337 15.9045 3.42778C15.9675 3.39465 16.0373 3.37639 16.1084 3.37445C16.1796 3.37251 16.2503 3.38693 16.315 3.41657C16.3798 3.44621 16.4369 3.49027 16.4819 3.54543C16.527 3.60058 16.5588 3.66535 16.575 3.73473L17.1716 5.39459C17.199 5.4447 17.2154 5.50007 17.2198 5.557C17.2242 5.61394 17.2165 5.67113 17.1972 5.72486C17.1778 5.77859 17.1473 5.82762 17.1077 5.86867C17.068 5.90973 17.02 5.94189 16.967 5.96304C16.5409 6.16769 16.0977 6.33822 15.6715 6.5315C15.2453 6.72477 14.8192 6.9692 14.3759 7.20226L14.9442 8.15726C16.1719 7.44922 17.4733 6.87739 18.8251 6.4519C18.814 6.39033 18.7988 6.32959 18.7796 6.27003C18.4955 5.28093 18.2114 4.28611 17.916 3.29701C17.8194 2.95025 17.9159 2.72858 18.2796 2.64331C19.0524 2.46709 19.8308 2.30223 20.615 2.17149C21.8162 1.9687 23.0337 1.87923 24.2516 1.9043C24.389 1.90385 24.5254 1.92692 24.655 1.97251C24.7405 1.99855 24.814 2.05385 24.8628 2.12867C24.9117 2.20349 24.9326 2.29309 24.9221 2.38181C24.888 2.95026 24.8653 3.5585 24.8369 4.14968C24.8369 4.50781 24.655 4.66128 24.2686 4.67265L21.723 4.78635C21.6663 4.78295 21.6093 4.78295 21.5526 4.78635L21.6889 5.84369C23.1091 5.66653 24.5452 5.65696 25.9676 5.81524C26.0131 5.29795 26.0528 4.80342 26.104 4.30887C26.1665 3.67789 26.229 3.04689 26.2972 2.41023C26.3256 2.18285 26.5415 2.04641 26.8654 2.08621C27.4216 2.1321 27.974 2.21566 28.5189 2.33632C29.6156 2.62055 30.6952 2.95593 31.7748 3.29132C32.1139 3.41056 32.4459 3.54914 32.7692 3.70631C33.1669 3.88822 33.2351 4.08147 33.0533 4.47371L32.343 5.99146C32.1896 6.32116 32.0135 6.38369 31.6782 6.24158C31.235 6.05968 30.7975 5.85503 30.3429 5.67313C29.8883 5.49122 29.5247 5.43441 29.0815 5.30935L28.7803 6.34959C30.1673 6.71467 31.5035 7.25125 32.7578 7.94693L33.4113 6.76458L34.3659 5.05923C34.3919 4.9912 34.4333 4.93011 34.4868 4.88075C34.5404 4.8314 34.6046 4.7951 34.6745 4.77472C34.7444 4.75435 34.818 4.75045 34.8897 4.76331C34.9614 4.77617 35.0291 4.80549 35.0875 4.8489C35.2864 4.96259 35.4739 5.09332 35.6557 5.22407C36.224 5.60493 36.7467 5.98011 37.2809 6.36097C37.7184 6.6793 38.1445 7.01468 38.565 7.35007C38.7525 7.50923 38.9116 7.69684 39.0878 7.86738C39.3549 8.12886 39.6219 8.38464 39.8776 8.6575C40.1333 8.93035 40.1504 9.1407 39.8776 9.41924C39.4628 9.81715 39.0367 10.215 38.6162 10.6073C38.5742 10.6518 38.5236 10.6874 38.4674 10.7116C38.4112 10.7359 38.3506 10.7484 38.2894 10.7484C38.2282 10.7484 38.1677 10.7359 38.1115 10.7116C38.0553 10.6874 38.0047 10.6518 37.9627 10.6073C37.3945 10.0957 36.8888 9.58407 36.3433 9.08383C36.1875 8.95506 36.0243 8.83548 35.8546 8.72571L35.2069 9.57838C36.3217 10.4502 37.3322 11.4478 38.2184 12.5514C38.3434 12.4661 38.4684 12.3922 38.5821 12.3013C39.1503 11.8352 39.7185 11.3577 40.3208 10.8858L40.889 10.4368C40.976 10.3734 41.0843 10.3469 41.1906 10.3628C41.297 10.3788 41.3928 10.436 41.4573 10.522C41.9857 11.2838 42.5312 12.0398 43.0369 12.7958C43.3539 13.3091 43.6404 13.8405 43.8949 14.3875C44.1393 14.8991 44.3495 15.4221 44.5597 15.945C44.595 16.0097 44.6146 16.0818 44.617 16.1554C44.6195 16.229 44.6046 16.3022 44.5737 16.3691C44.5427 16.4359 44.4966 16.4946 44.4389 16.5404C44.3812 16.5862 44.3136 16.6179 44.2415 16.6329L42.6392 17.2013C42.2925 17.3207 42.1221 17.2411 41.9743 16.9C41.7471 16.3771 41.5255 15.8484 41.2811 15.3254C41.1334 15.0185 40.9459 14.7286 40.7754 14.4273L39.8662 15.0639C40.5649 16.2976 41.1234 17.6056 41.5311 18.9635C41.7868 18.8896 42.0596 18.8044 42.338 18.7305C43.1676 18.4917 43.9972 18.253 44.8268 18.0256C45.0427 17.9631 45.2359 18.0938 45.3212 18.3666C45.4403 18.7222 45.5371 19.0848 45.6109 19.4524C45.9164 21.0313 46.0668 22.6363 46.0598 24.2444C46.0598 24.3183 46.0598 24.3866 46.0598 24.4548C46.058 24.5181 46.0429 24.5804 46.0155 24.6376C45.9881 24.6948 45.9491 24.7456 45.901 24.7868C45.8528 24.8281 45.7966 24.8588 45.7359 24.8769C45.6752 24.8951 45.6113 24.9004 45.5484 24.8925Z" fill="black"/>
<path fill-rule="evenodd" clip-rule="evenodd" d="M41.4346 19.85C41.3731 19.8769 41.3063 19.8893 41.2392 19.8863C41.1722 19.8832 41.1067 19.8647 41.048 19.8323C40.9892 19.7999 40.9387 19.7544 40.9003 19.6993C40.8619 19.6442 40.8367 19.581 40.8266 19.5147C40.7414 19.202 40.6903 18.878 40.5766 18.5824C40.2812 17.8263 39.98 17.076 39.6504 16.3086C39.4572 15.8879 39.2015 15.49 38.9742 15.0864C38.9339 15.0323 38.906 14.97 38.8924 14.9039C38.8788 14.8378 38.88 14.7695 38.8957 14.7039C38.9114 14.6383 38.9414 14.5769 38.9834 14.5242C39.0255 14.4714 39.0786 14.4285 39.139 14.3986C39.6107 14.1087 40.0766 13.8301 40.5425 13.5288C40.5929 13.4786 40.6549 13.4416 40.723 13.4211C40.791 13.4006 40.8631 13.3972 40.9329 13.4112C41.0026 13.4253 41.0677 13.4564 41.1226 13.5017C41.1774 13.547 41.2202 13.6051 41.2471 13.671C41.3551 13.8415 41.446 14.0291 41.5426 14.211C41.7869 14.6771 42.037 15.1432 42.2756 15.6151C42.3722 15.8197 42.4404 16.0357 42.5313 16.2631L43.6223 15.8083C42.9949 14.2752 42.186 12.8229 41.213 11.4824C41.0198 11.6075 40.8494 11.7098 40.6903 11.8235C39.9914 12.3294 39.3038 12.8524 38.5935 13.3469C38.1333 13.6653 38.0822 13.6426 37.7014 13.2276L37.6162 13.1253C37.048 12.5227 36.5366 11.8974 35.9627 11.3233C35.4797 10.8458 34.9456 10.4194 34.4228 9.9817C34.1558 9.76 34.1103 9.60084 34.3205 9.31093C34.6444 8.85048 34.9797 8.39573 35.3092 7.93529C35.3368 7.87763 35.3777 7.82744 35.4287 7.78898C35.4797 7.75052 35.5392 7.72491 35.6022 7.71431C35.6652 7.70372 35.7298 7.70846 35.7906 7.72812C35.8513 7.74778 35.9065 7.7818 35.9513 7.82728C36.1852 7.98834 36.4109 8.16097 36.6275 8.34456C37.1446 8.78795 37.6503 9.24838 38.1901 9.7202C38.3663 9.53829 38.5595 9.32228 38.7583 9.15175C38.9572 8.98121 39.014 8.90733 38.7583 8.67427C38.5026 8.4412 38.1106 8.04896 37.7526 7.7761C37.065 7.24176 36.3604 6.73584 35.6559 6.21855C35.474 6.08213 35.2922 5.95706 35.0876 5.82063L34.9342 6.05372L33.2977 8.73679C33.2745 8.78801 33.2408 8.83375 33.1986 8.87096C33.1565 8.90816 33.1069 8.93598 33.0532 8.95263C32.9995 8.96928 32.9429 8.97438 32.8871 8.96755C32.8313 8.96072 32.7776 8.94212 32.7295 8.91301C32.2352 8.6572 31.7408 8.40139 31.2408 8.15696C30.5371 7.78459 29.7912 7.4983 29.0191 7.30428C28.7406 7.24175 28.4508 7.1508 28.1838 7.05985C28.1292 7.04799 28.0776 7.02508 28.0322 6.99251C27.9867 6.95993 27.9485 6.91838 27.9197 6.87045C27.891 6.82251 27.8723 6.76921 27.865 6.7138C27.8576 6.65838 27.8617 6.60205 27.8769 6.54827C28.0019 5.97981 28.1383 5.41136 28.2804 4.84291C28.2851 4.77486 28.3063 4.70895 28.3421 4.65091C28.3779 4.59287 28.4273 4.54442 28.4861 4.50973C28.5448 4.47505 28.611 4.45518 28.6791 4.45182C28.7473 4.44847 28.8152 4.46173 28.877 4.49048C29.5418 4.67806 30.201 4.87134 30.8544 5.05893C31.1113 5.14852 31.3635 5.25096 31.6101 5.36588C31.7692 4.9907 31.9283 4.63259 32.0818 4.28015C30.5446 3.62555 28.9254 3.18374 27.2689 2.967C27.2689 3.03521 27.2348 3.10911 27.2235 3.18301C27.0757 4.18348 26.9261 5.18207 26.7746 6.17876C26.7178 6.55962 26.5473 6.69036 26.1666 6.6392C24.6153 6.43633 23.0434 6.44972 21.4958 6.679C21.0924 6.74153 20.9617 6.63922 20.8878 6.22993C20.814 5.82065 20.7231 5.26354 20.6265 4.78036C20.5299 4.29717 20.6606 4.06982 21.1947 4.03003C21.9277 3.9675 22.6607 3.92771 23.3937 3.88223H23.8937V2.68846C22.9391 2.60319 19.4787 3.02387 18.99 3.28536C19.2457 4.35973 19.5071 5.43979 19.7685 6.51416C19.7943 6.5746 19.8061 6.64006 19.8032 6.70571C19.8002 6.77137 19.7826 6.8355 19.7514 6.89338C19.7203 6.95126 19.6766 7.00142 19.6235 7.04007C19.5703 7.07873 19.5092 7.10493 19.4446 7.11672C19.1434 7.20767 18.8252 7.24746 18.5354 7.36115C17.7683 7.66243 17.0069 7.97506 16.2625 8.31045C15.8705 8.48667 15.5011 8.7311 15.1261 8.94711C14.7511 9.16312 14.5579 9.11765 14.3363 8.77089C14.0522 8.32182 13.7681 7.86705 13.484 7.41229C13.4351 7.36148 13.3995 7.29952 13.3801 7.23177C13.3607 7.16401 13.3582 7.09251 13.3728 7.02356C13.3874 6.95461 13.4186 6.89028 13.4637 6.83617C13.5088 6.78205 13.5665 6.7398 13.6317 6.7131C13.8022 6.6051 13.9897 6.53121 14.1658 6.44026L15.8705 5.58189L16.2171 5.41136C16.0637 5.04187 15.9273 4.68942 15.7796 4.33129C14.25 4.96375 12.8005 5.77467 11.4611 6.74721C11.5426 6.90127 11.6317 7.05114 11.7282 7.19627C12.035 7.61693 12.3532 8.02622 12.6657 8.44687C12.9782 8.86753 13.1885 9.18017 13.4499 9.54398C13.4816 9.58038 13.5057 9.62273 13.5209 9.66857C13.5361 9.71441 13.542 9.76281 13.5383 9.81096C13.5346 9.85911 13.5214 9.90604 13.4994 9.94901C13.4774 9.99199 13.447 10.0302 13.4101 10.0613C13.3249 10.1523 13.2396 10.2319 13.1487 10.3171C12.5407 10.8856 11.91 11.4085 11.3304 11.994C10.8602 12.4836 10.4164 12.9978 10.0008 13.5345C9.75648 13.8301 9.60874 13.8813 9.29622 13.6596L7.93817 12.6819C7.87691 12.6559 7.82314 12.6149 7.7818 12.5627C7.74047 12.5105 7.71289 12.4488 7.70158 12.3832C7.69027 12.3176 7.6956 12.2502 7.71708 12.1871C7.73856 12.1241 7.77551 12.0675 7.82453 12.0225C7.995 11.7837 8.17683 11.5449 8.39275 11.3176C8.60867 11.0902 8.83596 10.8117 9.06325 10.5615C9.29053 10.3114 9.48942 10.067 9.72807 9.7941C9.46669 9.55535 9.15984 9.28817 8.87005 9.00963C7.71321 10.1958 6.68998 11.5054 5.81872 12.9149C6.09147 13.0684 6.34148 13.1991 6.58013 13.3469L8.68254 14.643C9.01211 14.8477 9.06325 15.0182 8.86437 15.3422C8.36284 16.21 7.94065 17.1214 7.60293 18.0651C7.39837 18.6336 7.26768 19.202 7.10289 19.7705C7.01766 20.0661 6.85856 20.1911 6.58581 20.1342C6.01759 20.0092 5.40392 19.8728 4.81866 19.725C4.76267 19.7179 4.70897 19.6984 4.66143 19.6679C4.61389 19.6375 4.57371 19.5969 4.5438 19.549C4.51389 19.5011 4.49499 19.4472 4.48847 19.3911C4.48196 19.335 4.488 19.2782 4.50614 19.2247C4.63683 18.6563 4.77888 18.1276 4.94935 17.5876C5.06867 17.1897 5.23914 16.8088 5.39256 16.4052L4.31862 15.9391C3.66809 17.4789 3.23217 19.101 3.02308 20.7596L3.13105 20.788L6.23921 21.2427C6.61423 21.2939 6.74492 21.4758 6.70514 21.8567C6.64832 22.3569 6.59718 22.8571 6.58013 23.363C6.52979 24.4043 6.58501 25.448 6.74492 26.4782C6.76786 26.5431 6.77476 26.6126 6.76502 26.6807C6.75528 26.7488 6.7292 26.8136 6.689 26.8694C6.64879 26.9253 6.59567 26.9706 6.53416 27.0015C6.47265 27.0323 6.4046 27.0478 6.3358 27.0466C5.80736 27.1262 5.2846 27.2115 4.75615 27.3081C4.35272 27.3763 4.12543 27.2285 4.09702 26.8192C4.03451 25.9722 3.99474 25.1139 3.9436 24.2783C3.9436 24.1987 3.9436 24.1134 3.9436 24.0395H2.80716C2.79529 25.6975 2.98611 27.3507 3.37538 28.9623L6.58013 28.1949C6.93811 28.1096 7.14835 28.1949 7.21653 28.5473C7.28472 28.8998 7.35291 29.1783 7.46655 29.4796C7.77339 30.2527 8.08591 31.0258 8.42684 31.7534C8.60299 32.1513 8.853 32.5151 9.06325 32.8903C9.10436 32.9439 9.13285 33.0062 9.14658 33.0723C9.16032 33.1385 9.15894 33.207 9.14255 33.2725C9.12617 33.3381 9.09519 33.3991 9.05195 33.451C9.0087 33.503 8.9543 33.5445 8.89279 33.5724C8.42685 33.868 7.95522 34.1409 7.49496 34.4478C7.19949 34.6411 6.9722 34.6127 6.79037 34.3057C6.68241 34.1295 6.5915 33.9476 6.4949 33.7657C6.25625 33.311 6.01192 32.8619 5.78463 32.4014C5.67667 32.1854 5.59711 31.9523 5.5062 31.7136L4.41522 32.1684C5.04319 33.7088 5.85602 35.1671 6.83583 36.5113L7.58588 35.9429L9.5576 34.5331C9.59842 34.489 9.64884 34.4548 9.70496 34.4332C9.76109 34.4117 9.82141 34.4033 9.88128 34.4088C9.94115 34.4143 9.99895 34.4335 10.0502 34.4649C10.1015 34.4963 10.1448 34.5391 10.1769 34.5899C10.5463 35.0049 10.8986 35.4256 11.2622 35.8349C11.9842 36.6122 12.7671 37.3308 13.6033 37.9836C13.8931 38.2167 13.9272 38.3701 13.7056 38.6771C13.3817 39.1319 13.0521 39.5809 12.7282 40.03C12.7011 40.0905 12.6592 40.1432 12.6065 40.1834C12.5538 40.2236 12.4919 40.25 12.4264 40.2601C12.3609 40.2703 12.2939 40.2639 12.2315 40.2416C12.1691 40.2193 12.1133 40.1817 12.0691 40.1323C11.2722 39.5537 10.527 38.907 9.84171 38.1996C9.63147 38.4327 9.42123 38.6771 9.19962 38.9045C9.08598 39.0182 9.05188 39.1035 9.19962 39.2228C9.54055 39.5298 9.85307 39.8709 10.211 40.1494C10.9383 40.7179 11.6884 41.2579 12.4327 41.8093C12.5975 41.9343 12.7737 42.048 12.9555 42.1731L13.1089 41.9344L14.7113 39.3195C14.9159 38.9784 15.0807 38.9329 15.4273 39.1432C16.2974 39.6544 17.2145 40.0808 18.1661 40.4166C18.7002 40.6212 19.2571 40.752 19.8082 40.9111C20.0867 40.9907 20.2401 41.184 20.1889 41.4284C20.0582 41.9969 19.9219 42.5653 19.7741 43.1679C19.7655 43.2308 19.7428 43.2909 19.7077 43.3438C19.6725 43.3967 19.6259 43.4409 19.5712 43.4732C19.5165 43.5055 19.4553 43.5249 19.392 43.5301C19.3287 43.5353 19.2651 43.5262 19.2059 43.5033C18.4843 43.293 17.7683 43.0769 17.0581 42.8496C16.8528 42.7774 16.6517 42.6939 16.4557 42.5994C16.3137 42.9291 16.1773 43.2475 16.0353 43.5544C15.9784 43.6852 16.0353 43.7363 16.1489 43.7761C16.5012 43.8955 16.8535 44.0319 17.2115 44.14C17.9899 44.373 18.7741 44.6174 19.5639 44.8278C19.956 44.9301 20.3708 44.9585 20.7969 45.0267C20.8594 44.6402 20.9276 44.2877 20.9788 43.9353C21.0867 43.1963 21.1833 42.4516 21.3026 41.707C21.3095 41.6487 21.3282 41.5924 21.3575 41.5416C21.3868 41.4908 21.4261 41.4465 21.4731 41.4114C21.6317 41.3477 21.803 41.3224 21.9731 41.3375C23.0604 41.4757 24.1586 41.5062 25.2518 41.4284C25.7234 41.3943 26.195 41.3261 26.6666 41.2749C26.9678 41.2749 27.0985 41.3432 27.1496 41.6331C27.2519 42.2015 27.3599 42.77 27.4565 43.3043C27.519 43.6624 27.3996 43.8728 27.0473 43.8728C26.178 43.9523 25.3029 43.9978 24.4335 44.0604H24.1892V45.1973C25.8409 45.2106 27.488 45.0197 29.0929 44.6288C29.0956 44.5853 29.0956 44.5416 29.0929 44.4981C28.8429 43.4578 28.5986 42.4175 28.3429 41.3773C28.322 41.3195 28.3137 41.258 28.3185 41.1968C28.3233 41.1356 28.3411 41.0761 28.3707 41.0224C28.4002 40.9686 28.4409 40.9217 28.49 40.8849C28.5391 40.8481 28.5955 40.8221 28.6554 40.8088C28.9566 40.7178 29.2691 40.6781 29.5589 40.5644C30.3487 40.2574 31.1328 39.9334 31.9056 39.5867C32.309 39.4047 32.6784 39.1546 33.0421 38.9386C33.0972 38.8963 33.1611 38.8669 33.2291 38.8525C33.2971 38.8382 33.3675 38.8392 33.4351 38.8555C33.5026 38.8719 33.5657 38.9031 33.6196 38.947C33.6735 38.9909 33.7169 39.0463 33.7466 39.1091C34.0364 39.5696 34.3149 40.0357 34.6047 40.4905C34.8149 40.8145 34.7751 41.0248 34.4399 41.2238C34.2751 41.3261 34.0933 41.4114 33.9171 41.5023C33.4455 41.7524 32.9739 42.0082 32.4966 42.247C32.309 42.3436 32.1045 42.4062 31.8942 42.4914C32.0477 42.8723 32.1897 43.2304 32.3318 43.5942C33.8715 42.9563 35.329 42.1356 36.673 41.1499L36.1048 40.4166C35.6956 39.8481 35.2808 39.3138 34.8717 38.7567C34.7573 38.6143 34.6653 38.4552 34.599 38.2849C34.5713 38.1558 34.5894 38.0212 34.6501 37.904C34.7226 37.7966 34.8129 37.7024 34.9172 37.6255C35.4854 37.0911 36.1161 36.5852 36.673 36.0225C37.2298 35.4597 37.6389 34.9367 38.0992 34.3796C38.3378 34.0897 38.4913 34.0443 38.8038 34.266C39.2584 34.5843 39.7073 34.914 40.1618 35.238C40.4232 35.4256 40.48 35.6245 40.2755 35.8803C39.6732 36.6364 39.0481 37.3754 38.4174 38.1541C38.6504 38.3815 38.9345 38.643 39.23 38.9272C40.3981 37.7431 41.4293 36.4312 42.304 35.0163C42.0313 34.8571 41.7699 34.715 41.5199 34.5615C41.1278 34.3228 40.7414 34.067 40.355 33.8226C39.9686 33.5781 39.6959 33.4417 39.372 33.2541C39.3216 33.23 39.2769 33.1954 39.241 33.1526C39.205 33.1098 39.1786 33.0598 39.1636 33.006C39.1485 32.9522 39.1451 32.8957 39.1536 32.8405C39.1621 32.7852 39.1823 32.7324 39.2129 32.6857C39.4572 32.2082 39.7073 31.7363 39.9345 31.2531C40.1618 30.77 40.3721 30.2925 40.5482 29.7979C40.7244 29.3034 40.8664 28.7292 41.0255 28.1949C41.1108 27.8993 41.2699 27.7799 41.5937 27.8481C42.162 27.9675 42.7302 28.0982 43.2984 28.2347C43.3613 28.2435 43.4214 28.2663 43.4744 28.3014C43.5273 28.3365 43.5718 28.383 43.6045 28.4375C43.6371 28.492 43.6572 28.5531 43.6633 28.6164C43.6693 28.6796 43.6611 28.7434 43.6393 28.8031C43.4916 29.3716 43.3382 29.94 43.162 30.5085C43.0484 30.8666 42.9006 31.2191 42.7586 31.5942L43.8609 32.0717C44.4834 30.52 44.9109 28.897 45.1337 27.2399H45.0315L41.946 26.7851C41.5256 26.7226 41.4176 26.5577 41.4517 26.1314C41.5142 25.3015 41.5767 24.4715 41.571 23.6359C41.571 22.9424 41.4687 22.2489 41.4005 21.5554C41.3721 21.237 41.4915 21.0494 41.7756 20.9869L43.2757 20.7482C43.3471 20.7246 43.423 20.7185 43.4973 20.7302C43.5715 20.742 43.6419 20.7714 43.7025 20.8159C43.7631 20.8604 43.8122 20.9187 43.8457 20.9861C43.8792 21.0534 43.8961 21.1277 43.895 21.2029C43.9575 21.9647 44.003 22.7321 44.0484 23.4767C44.0484 23.6473 44.0484 23.8235 44.0484 24.0054H45.2417C45.2538 22.3474 45.0629 20.6942 44.6735 19.0826L41.4346 19.85ZM27.6553 13.3583C27.7406 15.4218 27.3258 15.7458 24.0642 16.0528C24.2347 13.9268 24.3767 13.8472 27.6553 13.3583ZM25.5416 8.52646C26.5757 10.482 26.2802 11.9372 24.6154 13.1196C23.388 11.6871 23.7062 10.0272 25.5416 8.54353V8.52646ZM26.5871 16.8259C26.445 18.77 26.195 18.9178 22.8596 19.0997C22.9562 17.0248 23.6437 16.6042 26.5871 16.8429V16.8259ZM19.2741 24.1589C20.3083 22.3626 20.5867 22.2944 23.1721 23.1129C22.5527 24.8524 21.9504 25.0229 19.2741 24.1589ZM20.7458 25.4265C20.0128 26.751 20.0128 26.751 17.5808 26.0859C17.7399 24.5625 19.0809 24.5966 20.7458 25.4379V25.4265ZM21.189 21.7714C21.6834 19.9126 21.9675 19.7989 25.104 20.2366C24.5529 22.1352 24.1437 22.2887 21.189 21.7828V21.7714ZM21.4617 11.4142C23.996 13.4777 24.0528 13.6084 23.3085 15.6946C21.0015 14.4952 20.5469 13.5118 21.4617 11.4256V11.4142ZM20.6378 14.4043C22.8425 16.3256 23.0357 16.9396 22.0186 18.7757C19.7344 17.059 19.4616 16.2006 20.6378 14.4156V14.4043ZM19.4503 17.2465C21.564 19.4862 21.6379 19.8444 20.4049 21.4701C18.382 19.6113 18.2286 18.9917 19.4503 17.2579V17.2465ZM18.0183 19.8102C19.8253 21.9192 19.9105 22.5558 18.5866 23.869C16.8308 21.5724 16.791 21.2768 18.0183 19.8216V19.8102ZM16.6035 22.3569C17.899 24.1248 17.9217 24.4715 16.7796 25.7676C15.4329 23.5904 15.4329 23.5108 16.6035 22.3683V22.3569ZM34.0251 24.9661C33.7413 25.2983 33.4008 25.5774 33.0193 25.7903C32.5079 26.0689 32.3602 26.3588 32.6443 26.8079C33.3773 27.9448 33.3432 28.0869 32.1556 28.7804C32.6216 29.7013 32.5875 29.7752 31.8999 30.554C31.7361 30.8257 31.6351 31.1306 31.6045 31.4464C31.601 31.5799 31.6222 31.7129 31.667 31.8387C31.9113 33.1916 31.1385 34.0727 29.7634 33.9249C29.1849 33.8202 28.615 33.672 28.0588 33.4815L27.8201 33.4019C26.1552 32.7482 24.6324 33.0381 23.6608 34.0102C21.672 35.9997 22.1095 39.3308 22.1095 39.3308C22.1095 39.3308 14.3931 33.3678 18.132 29.1556C18.882 28.3199 19.3196 28.1267 21.2572 27.1546C24.4665 25.1148 26.7802 21.9304 27.7292 18.247C28.1789 16.9151 28.534 15.5531 28.7918 14.1712C29.7918 14.8931 30.9567 17.6274 31.1953 19.2475C31.2989 20.1994 31.5897 21.1214 32.0509 21.9604C32.5122 22.7995 33.1349 23.5389 33.883 24.1362C33.9516 24.1787 34.0104 24.2353 34.0554 24.3023C34.1004 24.3693 34.1306 24.4451 34.144 24.5247C34.1575 24.6043 34.1538 24.6858 34.1333 24.7639C34.1128 24.842 34.0759 24.9148 34.0251 24.9775V24.9661Z" fill="black"/>
</g>
</g>
<defs>
<clipPath id="clip0_90_23">
<rect width="174" height="48" fill="white"/>
</clipPath>
</defs>
</svg>
